<svg xmlns="http://www.w3.org/2000/svg" width="480pt" height="290pt" viewBox="0 0 480 290" version="1.1" xmlns:xlink="http://www.w3.org/1999/xlink">
  <g id="surface2" transform="matrix(1,0,0,1,0,0)">
    <path style="stroke:none;fill-rule:evenodd;fill:rgb(94.509804%,35.294118%,13.333333%);fill-opacity:1" d="M 229.300781 148.699219 C 230.667969 150.433594 232.367188 151.800781 234.398438 152.800781 C 236.398438 153.800781 238.582031 154.316406 240.949219 154.351562 C 243.351562 154.316406 245.550781 153.800781 247.550781 152.800781 C 249.550781 151.800781 251.250000 150.433594 252.648438 148.699219 L 229.300781 148.699219 M 258.550781 143.750000 C 258.515625 142.949219 258.250000 142.285156 257.750000 141.750000 C 257.214844 141.250000 256.550781 140.984375 255.750000 140.949219 L 226.148438 140.949219 C 225.382812 140.984375 224.734375 141.250000 224.199219 141.750000 C 223.699219 142.285156 223.433594 142.949219 223.398438 143.750000 C 223.433594 144.515625 223.699219 145.167969 224.199219 145.699219 C 224.734375 146.199219 225.382812 146.464844 226.148438 146.500000 L 255.750000 146.500000 C 256.550781 146.464844 257.199219 146.199219 257.699219 145.699219 C 258.234375 145.167969 258.515625 144.515625 258.550781 143.750000 M 258.550781 136.000000 C 258.515625 135.199219 258.250000 134.550781 257.750000 134.050781 C 257.214844 133.515625 256.550781 133.234375 255.750000 133.199219 L 226.148438 133.199219 C 225.382812 133.234375 224.734375 133.500000 224.199219 134.000000 C 223.699219 134.535156 223.433594 135.199219 223.398438 136.000000 C 223.433594 136.765625 223.699219 137.417969 224.199219 137.949219 C 224.734375 138.449219 225.382812 138.714844 226.148438 138.750000 L 255.750000 138.750000 C 256.550781 138.714844 257.199219 138.449219 257.699219 137.949219 C 258.234375 137.417969 258.515625 136.765625 258.550781 136.000000 M 258.550781 128.250000 C 258.515625 129.015625 258.250000 129.667969 257.750000 130.199219 C 257.214844 130.734375 256.550781 131.000000 255.750000 131.000000 L 226.148438 131.000000 C 225.382812 130.964844 224.734375 130.699219 224.199219 130.199219 C 223.699219 129.667969 223.433594 129.015625 223.398438 128.250000 C 223.433594 127.449219 223.699219 126.800781 224.199219 126.300781 C 224.734375 125.765625 225.382812 125.484375 226.148438 125.449219 L 255.750000 125.449219 C 256.550781 125.484375 257.199219 125.750000 257.699219 126.250000 C 258.234375 126.785156 258.515625 127.449219 258.550781 128.250000 M 209.800781 116.750000 C 210.867188 116.214844 211.601562 115.417969 212.000000 114.351562 C 210.132812 112.582031 208.449219 110.648438 206.949219 108.550781 L 206.949219 108.500000 C 206.648438 108.566406 206.332031 108.683594 206.000000 108.851562 C 204.898438 109.417969 204.148438 110.234375 203.750000 111.300781 C 203.382812 112.398438 203.449219 113.515625 203.949219 114.648438 C 204.515625 115.785156 205.351562 116.550781 206.449219 116.949219 C 207.515625 117.316406 208.632812 117.250000 209.800781 116.750000 M 200.199219 93.898438 C 199.601562 91.398438 199.234375 88.851562 199.101562 86.250000 L 199.148438 86.250000 C 198.816406 86.148438 198.484375 86.066406 198.148438 86.000000 C 196.917969 85.867188 195.851562 86.167969 194.949219 86.898438 C 194.015625 87.601562 193.449219 88.566406 193.250000 89.800781 C 193.117188 91.035156 193.417969 92.117188 194.148438 93.050781 C 194.851562 93.949219 195.816406 94.500000 197.050781 94.699219 C 198.250000 94.832031 199.300781 94.566406 200.199219 93.898438 M 286.101562 86.199219 C 285.000000 85.765625 283.917969 85.734375 282.851562 86.101562 L 282.851562 86.148438 C 282.714844 88.683594 282.351562 91.214844 281.750000 93.750000 L 281.699219 93.750000 C 281.964844 93.949219 282.250000 94.117188 282.550781 94.250000 C 283.714844 94.714844 284.851562 94.750000 285.949219 94.351562 C 287.015625 93.917969 287.816406 93.132812 288.351562 92.000000 C 288.816406 90.867188 288.851562 89.750000 288.449219 88.648438 C 288.015625 87.550781 287.234375 86.734375 286.101562 86.199219 M 221.699219 121.300781 C 219.433594 120.101562 217.265625 118.714844 215.199219 117.148438 L 215.199219 117.101562 C 214.933594 117.265625 214.667969 117.449219 214.398438 117.648438 C 213.500000 118.515625 213.015625 119.535156 212.949219 120.699219 C 212.882812 121.867188 213.250000 122.917969 214.050781 123.851562 C 214.917969 124.750000 215.933594 125.250000 217.101562 125.351562 C 218.265625 125.417969 219.316406 125.050781 220.250000 124.250000 C 221.148438 123.382812 221.632812 122.398438 221.699219 121.300781 M 268.898438 119.601562 C 268.500000 118.433594 267.816406 117.582031 266.851562 117.050781 C 264.816406 118.617188 262.648438 120.000000 260.351562 121.199219 C 260.351562 121.535156 260.398438 121.851562 260.500000 122.148438 C 260.898438 123.351562 261.617188 124.214844 262.648438 124.750000 C 263.683594 125.316406 264.800781 125.417969 266.000000 125.050781 C 267.167969 124.648438 268.035156 123.949219 268.601562 122.949219 C 269.132812 121.917969 269.234375 120.800781 268.898438 119.601562 M 275.050781 108.398438 L 275.050781 108.449219 C 273.582031 110.515625 271.917969 112.449219 270.050781 114.250000 L 270.000000 114.250000 C 270.132812 114.550781 270.285156 114.832031 270.449219 115.101562 C 271.183594 116.132812 272.117188 116.765625 273.250000 117.000000 C 274.382812 117.234375 275.484375 117.015625 276.550781 116.351562 C 277.550781 115.648438 278.167969 114.734375 278.398438 113.601562 C 278.632812 112.433594 278.433594 111.332031 277.800781 110.300781 C 277.101562 109.300781 276.183594 108.667969 275.050781 108.398438 M 272.199219 51.351562 C 271.101562 51.917969 270.351562 52.714844 269.949219 53.750000 C 271.816406 55.550781 273.500000 57.500000 275.000000 59.601562 C 275.300781 59.535156 275.617188 59.433594 275.949219 59.300781 C 277.050781 58.734375 277.800781 57.898438 278.199219 56.800781 C 278.566406 55.699219 278.500000 54.582031 278.000000 53.449219 C 277.433594 52.351562 276.617188 51.601562 275.550781 51.199219 C 274.449219 50.800781 273.332031 50.851562 272.199219 51.351562 M 195.800781 81.898438 C 196.933594 82.367188 198.035156 82.398438 199.101562 82.000000 C 199.234375 79.433594 199.582031 76.898438 200.148438 74.398438 L 200.199219 74.351562 C 199.933594 74.183594 199.648438 74.035156 199.351562 73.898438 C 198.214844 73.398438 197.101562 73.367188 196.000000 73.800781 C 194.898438 74.234375 194.082031 75.015625 193.550781 76.148438 C 193.082031 77.285156 193.066406 78.398438 193.500000 79.500000 C 193.933594 80.566406 194.699219 81.367188 195.800781 81.898438 M 260.250000 46.851562 C 262.515625 48.015625 264.683594 49.398438 266.750000 51.000000 C 267.015625 50.867188 267.285156 50.683594 267.550781 50.449219 C 268.449219 49.617188 268.933594 48.617188 269.000000 47.449219 C 269.066406 46.285156 268.699219 45.214844 267.898438 44.250000 C 267.066406 43.351562 266.066406 42.867188 264.898438 42.800781 C 263.734375 42.734375 262.667969 43.101562 261.699219 43.898438 C 260.832031 44.734375 260.351562 45.714844 260.250000 46.851562 M 281.500000 70.148438 C 282.699219 69.917969 283.648438 69.332031 284.351562 68.398438 C 285.050781 67.464844 285.316406 66.382812 285.148438 65.148438 C 284.917969 63.917969 284.332031 62.949219 283.398438 62.250000 C 282.433594 61.582031 281.351562 61.332031 280.148438 61.500000 C 278.917969 61.699219 277.964844 62.250000 277.300781 63.148438 C 278.601562 65.382812 279.667969 67.714844 280.500000 70.148438 L 280.500000 70.199219 C 280.832031 70.199219 281.167969 70.183594 281.500000 70.148438 M 284.199219 105.050781 C 284.964844 104.082031 285.300781 103.015625 285.199219 101.851562 C 285.101562 100.683594 284.582031 99.683594 283.648438 98.851562 C 282.714844 98.082031 281.683594 97.750000 280.550781 97.851562 C 279.714844 100.250000 278.667969 102.582031 277.398438 104.851562 L 277.351562 104.851562 C 277.550781 105.117188 277.765625 105.351562 278.000000 105.550781 C 278.964844 106.316406 280.035156 106.648438 281.199219 106.550781 C 282.367188 106.484375 283.367188 105.984375 284.199219 105.050781 M 281.699219 74.250000 L 281.750000 74.250000 C 282.316406 76.750000 282.683594 79.285156 282.851562 81.851562 L 282.800781 81.898438 C 283.101562 82.000000 283.417969 82.066406 283.750000 82.101562 C 284.984375 82.234375 286.066406 81.949219 287.000000 81.250000 C 287.933594 80.550781 288.500000 79.582031 288.699219 78.351562 C 288.832031 77.117188 288.535156 76.035156 287.800781 75.101562 C 287.101562 74.167969 286.132812 73.601562 284.898438 73.398438 C 283.699219 73.300781 282.632812 73.582031 281.699219 74.250000 M 206.851562 59.699219 C 208.351562 57.601562 210.015625 55.648438 211.851562 53.851562 L 211.898438 53.851562 C 211.800781 53.550781 211.648438 53.265625 211.449219 53.000000 C 210.750000 51.964844 209.816406 51.332031 208.648438 51.101562 C 207.515625 50.867188 206.433594 51.082031 205.398438 51.750000 C 204.367188 52.484375 203.734375 53.417969 203.500000 54.550781 C 203.265625 55.683594 203.484375 56.785156 204.148438 57.851562 C 204.851562 58.851562 205.750000 59.464844 206.851562 59.699219 M 196.800781 103.000000 C 197.035156 104.234375 197.617188 105.183594 198.550781 105.851562 C 199.515625 106.550781 200.617188 106.816406 201.851562 106.648438 C 203.015625 106.449219 203.949219 105.882812 204.648438 104.949219 C 203.351562 102.750000 202.265625 100.417969 201.398438 97.949219 L 201.449219 97.949219 C 201.117188 97.917969 200.785156 97.933594 200.449219 98.000000 C 199.214844 98.234375 198.265625 98.816406 197.601562 99.750000 C 196.898438 100.683594 196.632812 101.765625 196.800781 103.000000 M 204.601562 63.300781 C 204.398438 63.035156 204.167969 62.785156 203.898438 62.550781 C 202.933594 61.785156 201.867188 61.449219 200.699219 61.550781 C 199.535156 61.648438 198.550781 62.167969 197.750000 63.101562 C 196.949219 64.066406 196.601562 65.132812 196.699219 66.300781 C 196.800781 67.464844 197.316406 68.464844 198.250000 69.300781 C 199.183594 70.035156 200.214844 70.367188 201.351562 70.300781 C 202.214844 67.867188 203.285156 65.535156 204.550781 63.300781 L 204.601562 63.300781 M 249.000000 42.898438 C 251.500000 43.398438 253.964844 44.117188 256.398438 45.050781 L 256.398438 45.101562 C 256.601562 44.867188 256.800781 44.601562 257.000000 44.300781 C 257.632812 43.234375 257.816406 42.132812 257.550781 41.000000 C 257.285156 39.867188 256.632812 38.964844 255.601562 38.300781 C 254.535156 37.667969 253.433594 37.484375 252.300781 37.750000 C 251.167969 37.984375 250.250000 38.632812 249.550781 39.699219 C 248.949219 40.734375 248.765625 41.800781 249.000000 42.898438 M 237.101562 42.300781 C 239.632812 42.066406 242.199219 42.066406 244.800781 42.300781 L 244.800781 42.351562 C 244.933594 42.050781 245.050781 41.734375 245.148438 41.398438 C 245.449219 40.199219 245.316406 39.101562 244.750000 38.101562 C 244.183594 37.066406 243.300781 36.367188 242.101562 36.000000 C 240.898438 35.699219 239.800781 35.832031 238.800781 36.398438 C 237.765625 37.000000 237.066406 37.882812 236.699219 39.050781 C 236.398438 40.214844 236.515625 41.300781 237.050781 42.300781 L 237.101562 42.300781 M 213.000000 48.550781 C 213.398438 49.683594 214.101562 50.535156 215.101562 51.101562 L 215.101562 51.050781 C 217.101562 49.484375 219.250000 48.101562 221.550781 46.898438 L 221.601562 46.898438 C 221.566406 46.601562 221.500000 46.285156 221.398438 45.949219 C 221.000000 44.785156 220.285156 43.917969 219.250000 43.351562 C 218.214844 42.816406 217.101562 42.714844 215.898438 43.050781 C 214.734375 43.449219 213.882812 44.167969 213.351562 45.199219 C 212.785156 46.234375 212.667969 47.351562 213.000000 48.550781 M 228.500000 37.648438 C 229.734375 37.648438 230.765625 38.066406 231.601562 38.898438 C 232.433594 39.699219 232.882812 40.714844 232.949219 41.949219 C 232.949219 42.316406 232.917969 42.648438 232.851562 42.949219 L 232.800781 42.949219 C 230.265625 43.449219 227.816406 44.167969 225.449219 45.101562 C 224.617188 44.300781 224.183594 43.300781 224.148438 42.101562 C 224.148438 40.867188 224.566406 39.832031 225.398438 39.000000 C 226.199219 38.132812 227.234375 37.683594 228.500000 37.648438 "/>
    <path style="stroke:none;fill-rule:evenodd;fill:rgb(96.470588%,54.509804%,12.156863%);fill-opacity:1" d="M 191.000000 110.101562 C 191.832031 109.964844 192.500000 109.566406 193.000000 108.898438 C 193.464844 108.265625 193.632812 107.515625 193.500000 106.648438 C 193.367188 105.816406 192.964844 105.167969 192.300781 104.699219 C 191.667969 104.234375 190.933594 104.050781 190.101562 104.148438 C 189.234375 104.316406 188.566406 104.714844 188.101562 105.351562 C 187.632812 106.015625 187.449219 106.765625 187.550781 107.601562 C 187.714844 108.433594 188.117188 109.082031 188.750000 109.550781 C 189.417969 110.050781 190.167969 110.234375 191.000000 110.101562 M 189.050781 92.398438 C 189.148438 91.535156 188.949219 90.785156 188.449219 90.148438 C 187.984375 89.515625 187.316406 89.132812 186.449219 89.000000 C 185.617188 88.933594 184.882812 89.132812 184.250000 89.601562 C 183.617188 90.101562 183.234375 90.765625 183.101562 91.601562 C 183.000000 92.464844 183.199219 93.214844 183.699219 93.851562 C 184.199219 94.484375 184.867188 94.867188 185.699219 95.000000 C 186.535156 95.101562 187.265625 94.898438 187.898438 94.398438 C 188.535156 93.898438 188.917969 93.234375 189.050781 92.398438 M 197.800781 117.699219 C 197.035156 118.066406 196.515625 118.632812 196.250000 119.398438 C 195.984375 120.132812 196.015625 120.898438 196.351562 121.699219 C 196.750000 122.464844 197.316406 122.984375 198.050781 123.250000 C 198.816406 123.515625 199.601562 123.484375 200.398438 123.148438 C 201.167969 122.750000 201.683594 122.167969 201.949219 121.398438 C 202.214844 120.667969 202.167969 119.898438 201.800781 119.101562 C 201.433594 118.332031 200.867188 117.816406 200.101562 117.550781 C 199.332031 117.285156 198.566406 117.332031 197.800781 117.699219 M 183.300781 75.000000 C 182.964844 75.800781 182.949219 76.566406 183.250000 77.300781 C 183.550781 78.066406 184.082031 78.632812 184.851562 79.000000 C 185.648438 79.300781 186.417969 79.316406 187.148438 79.050781 C 187.917969 78.750000 188.464844 78.214844 188.800781 77.449219 C 189.132812 76.648438 189.148438 75.882812 188.851562 75.148438 C 188.582031 74.382812 188.066406 73.816406 187.300781 73.449219 C 186.500000 73.148438 185.734375 73.132812 185.000000 73.398438 C 184.234375 73.699219 183.667969 74.234375 183.300781 75.000000 M 192.800781 63.050781 C 193.332031 62.382812 193.566406 61.648438 193.500000 60.851562 C 193.433594 60.050781 193.082031 59.367188 192.449219 58.800781 C 191.785156 58.265625 191.050781 58.035156 190.250000 58.101562 C 189.449219 58.167969 188.765625 58.515625 188.199219 59.148438 C 187.667969 59.816406 187.433594 60.550781 187.500000 61.351562 C 187.566406 62.148438 187.917969 62.832031 188.550781 63.398438 C 189.214844 63.933594 189.949219 64.167969 190.750000 64.101562 C 191.550781 64.035156 192.234375 63.683594 192.800781 63.050781 M 289.101562 105.101562 C 288.566406 105.765625 288.332031 106.500000 288.398438 107.300781 C 288.464844 108.101562 288.816406 108.785156 289.449219 109.351562 C 290.117188 109.882812 290.851562 110.117188 291.648438 110.050781 C 292.449219 109.984375 293.132812 109.632812 293.699219 109.000000 C 294.234375 108.332031 294.464844 107.601562 294.398438 106.800781 C 294.332031 106.000000 293.984375 105.316406 293.351562 104.750000 C 292.683594 104.214844 291.949219 103.984375 291.148438 104.050781 C 290.351562 104.117188 289.667969 104.464844 289.101562 105.101562 M 298.601562 93.148438 C 298.933594 92.351562 298.949219 91.566406 298.648438 90.800781 C 298.351562 90.066406 297.816406 89.515625 297.050781 89.148438 C 296.250000 88.816406 295.484375 88.800781 294.750000 89.101562 C 294.015625 89.398438 293.464844 89.933594 293.101562 90.699219 C 292.765625 91.500000 292.750000 92.265625 293.050781 93.000000 C 293.316406 93.734375 293.832031 94.285156 294.601562 94.648438 C 295.398438 94.984375 296.167969 95.000000 296.898438 94.699219 C 297.667969 94.433594 298.234375 93.917969 298.601562 93.148438 M 209.000000 128.500000 C 208.398438 129.066406 208.066406 129.750000 208.000000 130.550781 C 207.964844 131.351562 208.234375 132.082031 208.800781 132.750000 C 209.367188 133.351562 210.050781 133.683594 210.851562 133.750000 C 211.648438 133.785156 212.382812 133.535156 213.050781 133.000000 C 213.648438 132.398438 213.984375 131.699219 214.050781 130.898438 C 214.082031 130.101562 213.816406 129.367188 213.250000 128.699219 C 212.683594 128.101562 212.000000 127.765625 211.199219 127.699219 C 210.398438 127.667969 209.667969 127.933594 209.000000 128.500000 M 273.851562 129.800781 C 273.582031 129.000000 273.082031 128.398438 272.351562 128.000000 C 271.648438 127.632812 270.898438 127.566406 270.101562 127.800781 C 269.265625 128.066406 268.667969 128.550781 268.300781 129.250000 C 267.933594 129.984375 267.867188 130.750000 268.101562 131.550781 C 268.367188 132.351562 268.851562 132.949219 269.550781 133.351562 C 270.250000 133.714844 271.015625 133.785156 271.851562 133.550781 C 272.648438 133.285156 273.250000 132.800781 273.648438 132.101562 C 274.015625 131.367188 274.082031 130.601562 273.851562 129.800781 M 281.199219 117.800781 C 280.500000 118.300781 280.082031 118.949219 279.949219 119.750000 C 279.785156 120.515625 279.917969 121.265625 280.351562 122.000000 C 280.851562 122.699219 281.500000 123.132812 282.300781 123.300781 C 283.066406 123.433594 283.816406 123.285156 284.550781 122.851562 C 285.250000 122.351562 285.683594 121.714844 285.851562 120.949219 C 285.984375 120.148438 285.832031 119.382812 285.398438 118.648438 C 284.898438 117.949219 284.265625 117.535156 283.500000 117.398438 C 282.699219 117.234375 281.933594 117.367188 281.199219 117.800781 M 284.148438 50.449219 C 284.917969 50.082031 285.433594 49.515625 285.699219 48.750000 C 285.964844 47.984375 285.917969 47.214844 285.550781 46.449219 C 285.183594 45.683594 284.617188 45.167969 283.851562 44.898438 C 283.082031 44.632812 282.316406 44.667969 281.550781 45.000000 C 280.785156 45.398438 280.265625 45.964844 280.000000 46.699219 C 279.734375 47.464844 279.765625 48.234375 280.101562 49.000000 C 280.500000 49.765625 281.066406 50.285156 281.800781 50.550781 C 282.566406 50.816406 283.351562 50.785156 284.148438 50.449219 M 254.949219 33.398438 C 255.683594 33.832031 256.449219 33.964844 257.250000 33.800781 C 258.015625 33.601562 258.632812 33.148438 259.101562 32.449219 C 259.535156 31.714844 259.667969 30.964844 259.500000 30.199219 C 259.300781 29.398438 258.851562 28.765625 258.148438 28.300781 C 257.417969 27.867188 256.667969 27.734375 255.898438 27.898438 C 255.101562 28.101562 254.464844 28.550781 254.000000 29.250000 C 253.566406 29.984375 253.449219 30.750000 253.648438 31.550781 C 253.816406 32.316406 254.250000 32.933594 254.949219 33.398438 M 292.851562 75.750000 C 292.750000 76.582031 292.949219 77.316406 293.449219 77.949219 C 293.917969 78.582031 294.582031 78.964844 295.449219 79.101562 C 296.285156 79.199219 297.015625 79.000000 297.648438 78.500000 C 298.285156 78.035156 298.667969 77.367188 298.800781 76.500000 C 298.898438 75.667969 298.699219 74.933594 298.199219 74.300781 C 297.734375 73.667969 297.066406 73.285156 296.199219 73.148438 C 295.367188 73.050781 294.632812 73.250000 294.000000 73.750000 C 293.367188 74.250000 292.984375 74.917969 292.851562 75.750000 M 290.898438 58.000000 C 290.066406 58.167969 289.417969 58.566406 288.949219 59.199219 C 288.484375 59.867188 288.300781 60.617188 288.398438 61.449219 C 288.566406 62.285156 288.964844 62.949219 289.601562 63.449219 C 290.234375 63.917969 290.984375 64.082031 291.851562 63.949219 C 292.683594 63.816406 293.332031 63.417969 293.800781 62.750000 C 294.265625 62.117188 294.449219 61.382812 294.351562 60.550781 C 294.183594 59.714844 293.785156 59.050781 293.148438 58.550781 C 292.515625 58.082031 291.765625 57.898438 290.898438 58.000000 M 272.898438 39.648438 C 273.535156 39.082031 273.867188 38.398438 273.898438 37.601562 C 273.964844 36.800781 273.714844 36.066406 273.148438 35.398438 C 272.582031 34.765625 271.898438 34.433594 271.101562 34.398438 C 270.300781 34.367188 269.566406 34.617188 268.898438 35.148438 C 268.265625 35.750000 267.933594 36.449219 267.898438 37.250000 C 267.867188 38.050781 268.117188 38.765625 268.648438 39.398438 C 269.250000 40.035156 269.949219 40.367188 270.750000 40.398438 C 271.550781 40.464844 272.265625 40.214844 272.898438 39.648438 M 208.050781 38.351562 C 208.316406 39.148438 208.800781 39.734375 209.500000 40.101562 C 210.199219 40.500000 210.964844 40.582031 211.800781 40.351562 C 212.601562 40.082031 213.199219 39.582031 213.601562 38.851562 C 213.964844 38.148438 214.035156 37.382812 213.800781 36.550781 C 213.535156 35.750000 213.035156 35.167969 212.300781 34.800781 C 211.601562 34.433594 210.851562 34.351562 210.050781 34.550781 C 209.214844 34.816406 208.617188 35.316406 208.250000 36.050781 C 207.882812 36.750000 207.816406 37.515625 208.050781 38.351562 M 200.648438 50.300781 C 201.351562 49.800781 201.785156 49.167969 201.949219 48.398438 C 202.117188 47.601562 201.964844 46.851562 201.500000 46.148438 C 201.035156 45.449219 200.398438 45.015625 199.601562 44.851562 C 198.832031 44.683594 198.082031 44.832031 197.351562 45.300781 C 196.648438 45.800781 196.214844 46.433594 196.050781 47.199219 C 195.882812 48.000000 196.035156 48.750000 196.500000 49.449219 C 197.000000 50.148438 197.632812 50.582031 198.398438 50.750000 C 199.199219 50.917969 199.949219 50.765625 200.648438 50.300781 M 240.148438 31.500000 C 240.984375 31.699219 241.734375 31.617188 242.398438 31.250000 C 243.101562 30.851562 243.582031 30.250000 243.851562 29.449219 C 244.050781 28.617188 243.949219 27.851562 243.550781 27.148438 C 243.183594 26.449219 242.582031 25.964844 241.750000 25.699219 C 240.917969 25.500000 240.148438 25.601562 239.449219 26.000000 C 238.750000 26.398438 238.285156 27.000000 238.050781 27.800781 C 237.851562 28.632812 237.933594 29.398438 238.300781 30.101562 C 238.699219 30.800781 239.316406 31.265625 240.148438 31.500000 M 225.199219 27.851562 C 226.066406 27.851562 226.785156 28.132812 227.351562 28.699219 C 227.917969 29.265625 228.214844 29.984375 228.250000 30.851562 C 228.250000 31.683594 227.964844 32.398438 227.398438 33.000000 C 226.867188 33.566406 226.167969 33.867188 225.300781 33.898438 C 224.433594 33.898438 223.714844 33.617188 223.148438 33.050781 C 222.582031 32.484375 222.285156 31.765625 222.250000 30.898438 C 222.250000 30.066406 222.535156 29.351562 223.101562 28.750000 C 223.667969 28.183594 224.367188 27.882812 225.199219 27.851562 "/>
    <path style="stroke:none;fill-rule:evenodd;fill:rgb(100.000000%,76.078431%,5.490196%);fill-opacity:1" d="M 241.000000 49.351562 C 236.167969 49.382812 231.667969 50.285156 227.500000 52.050781 C 223.300781 53.851562 219.617188 56.332031 216.449219 59.500000 C 213.285156 62.667969 210.800781 66.351562 209.000000 70.550781 C 207.199219 74.714844 206.285156 79.214844 206.250000 84.050781 C 206.285156 88.882812 207.199219 93.382812 209.000000 97.550781 C 210.765625 101.750000 213.250000 105.433594 216.449219 108.601562 C 219.617188 111.800781 223.300781 114.285156 227.500000 116.050781 C 231.667969 117.851562 236.167969 118.765625 241.000000 118.800781 C 245.832031 118.765625 250.332031 117.851562 254.500000 116.050781 C 258.699219 114.285156 262.382812 111.800781 265.550781 108.601562 C 268.714844 105.433594 271.199219 101.765625 273.000000 97.601562 C 274.800781 93.398438 275.699219 88.882812 275.699219 84.050781 C 275.667969 79.214844 274.765625 74.714844 273.000000 70.550781 C 271.199219 66.351562 268.714844 62.667969 265.550781 59.500000 C 262.382812 56.332031 258.699219 53.851562 254.500000 52.050781 C 250.332031 50.285156 245.832031 49.382812 241.000000 49.351562 M 190.949219 124.601562 C 190.382812 124.898438 189.984375 125.332031 189.750000 125.898438 C 189.550781 126.464844 189.582031 127.050781 189.851562 127.648438 C 190.148438 128.214844 190.582031 128.617188 191.148438 128.851562 C 191.714844 129.050781 192.300781 129.015625 192.898438 128.750000 C 193.464844 128.449219 193.867188 128.015625 194.101562 127.449219 C 194.300781 126.882812 194.265625 126.300781 194.000000 125.699219 C 193.699219 125.132812 193.265625 124.734375 192.699219 124.500000 C 192.132812 124.300781 191.550781 124.332031 190.949219 124.601562 M 204.398438 137.050781 C 203.933594 137.484375 203.683594 138.015625 203.648438 138.648438 C 203.617188 139.250000 203.800781 139.800781 204.199219 140.300781 C 204.667969 140.765625 205.199219 141.015625 205.800781 141.050781 C 206.398438 141.082031 206.949219 140.898438 207.449219 140.500000 C 207.917969 140.035156 208.167969 139.500000 208.199219 138.898438 C 208.234375 138.300781 208.050781 137.750000 207.648438 137.250000 C 207.183594 136.785156 206.648438 136.535156 206.050781 136.500000 C 205.449219 136.464844 204.898438 136.648438 204.398438 137.050781 M 183.550781 58.601562 C 183.984375 58.101562 184.167969 57.550781 184.101562 56.949219 C 184.066406 56.316406 183.800781 55.800781 183.300781 55.398438 C 182.800781 55.000000 182.250000 54.816406 181.648438 54.851562 C 181.015625 54.882812 180.484375 55.148438 180.050781 55.648438 C 179.648438 56.148438 179.484375 56.699219 179.550781 57.300781 C 179.582031 57.933594 179.851562 58.464844 180.351562 58.898438 C 180.851562 59.300781 181.398438 59.464844 182.000000 59.398438 C 182.632812 59.367188 183.148438 59.101562 183.550781 58.601562 M 181.550781 108.851562 C 180.917969 108.984375 180.417969 109.300781 180.050781 109.800781 C 179.683594 110.265625 179.550781 110.832031 179.648438 111.500000 C 179.750000 112.132812 180.050781 112.632812 180.550781 113.000000 C 181.050781 113.332031 181.617188 113.464844 182.250000 113.398438 C 182.882812 113.265625 183.382812 112.949219 183.750000 112.449219 C 184.117188 111.984375 184.250000 111.417969 184.148438 110.750000 C 184.050781 110.117188 183.750000 109.617188 183.250000 109.250000 C 182.750000 108.917969 182.183594 108.785156 181.550781 108.851562 M 175.699219 77.000000 C 176.300781 77.234375 176.882812 77.234375 177.449219 77.000000 C 178.015625 76.800781 178.449219 76.398438 178.750000 75.800781 C 178.984375 75.199219 178.984375 74.617188 178.750000 74.050781 C 178.550781 73.484375 178.148438 73.066406 177.550781 72.800781 C 176.949219 72.535156 176.367188 72.515625 175.800781 72.750000 C 175.234375 72.984375 174.816406 73.382812 174.550781 73.949219 C 174.316406 74.550781 174.300781 75.132812 174.500000 75.699219 C 174.734375 76.265625 175.132812 76.699219 175.699219 77.000000 M 176.949219 91.101562 C 176.316406 91.035156 175.750000 91.183594 175.250000 91.550781 C 174.785156 91.949219 174.500000 92.464844 174.398438 93.101562 C 174.332031 93.734375 174.484375 94.300781 174.851562 94.800781 C 175.214844 95.265625 175.714844 95.550781 176.351562 95.648438 C 177.015625 95.714844 177.582031 95.566406 178.050781 95.199219 C 178.550781 94.832031 178.851562 94.332031 178.949219 93.699219 C 179.015625 93.035156 178.867188 92.464844 178.500000 92.000000 C 178.101562 91.500000 177.582031 91.199219 176.949219 91.101562 M 193.050781 43.449219 C 193.582031 43.082031 193.917969 42.601562 194.050781 42.000000 C 194.148438 41.398438 194.035156 40.832031 193.699219 40.300781 C 193.332031 39.765625 192.851562 39.433594 192.250000 39.300781 C 191.648438 39.167969 191.082031 39.285156 190.550781 39.648438 C 190.015625 40.015625 189.683594 40.500000 189.550781 41.101562 C 189.417969 41.699219 189.535156 42.265625 189.898438 42.800781 C 190.265625 43.332031 190.750000 43.667969 191.351562 43.800781 C 191.949219 43.898438 192.515625 43.785156 193.050781 43.449219 M 288.898438 124.648438 C 288.367188 125.015625 288.035156 125.500000 287.898438 126.101562 C 287.800781 126.699219 287.917969 127.265625 288.250000 127.800781 C 288.617188 128.332031 289.101562 128.667969 289.699219 128.800781 C 290.300781 128.933594 290.882812 128.816406 291.449219 128.449219 C 291.984375 128.082031 292.300781 127.601562 292.398438 127.000000 C 292.535156 126.398438 292.417969 125.832031 292.050781 125.300781 C 291.683594 124.765625 291.199219 124.433594 290.601562 124.300781 C 290.035156 124.199219 289.464844 124.316406 288.898438 124.648438 M 305.050781 77.000000 C 305.683594 77.066406 306.234375 76.917969 306.699219 76.550781 C 307.199219 76.183594 307.500000 75.683594 307.601562 75.050781 C 307.667969 74.382812 307.515625 73.816406 307.148438 73.351562 C 306.785156 72.851562 306.285156 72.550781 305.648438 72.449219 C 304.984375 72.382812 304.417969 72.535156 303.949219 72.898438 C 303.449219 73.300781 303.148438 73.816406 303.050781 74.449219 C 302.984375 75.082031 303.132812 75.648438 303.500000 76.148438 C 303.867188 76.617188 304.382812 76.898438 305.050781 77.000000 M 306.250000 91.148438 C 305.648438 90.882812 305.066406 90.867188 304.500000 91.101562 C 303.933594 91.332031 303.515625 91.734375 303.250000 92.300781 C 303.015625 92.898438 303.000000 93.484375 303.199219 94.050781 C 303.433594 94.617188 303.832031 95.050781 304.398438 95.351562 C 305.000000 95.582031 305.582031 95.582031 306.148438 95.351562 C 306.714844 95.148438 307.148438 94.750000 307.449219 94.148438 C 307.683594 93.550781 307.699219 92.964844 307.500000 92.398438 C 307.265625 91.832031 306.851562 91.417969 306.250000 91.148438 M 275.550781 136.500000 C 274.917969 136.699219 274.464844 137.066406 274.199219 137.601562 C 273.898438 138.132812 273.832031 138.714844 274.000000 139.351562 C 274.199219 139.984375 274.582031 140.433594 275.148438 140.699219 C 275.683594 141.000000 276.250000 141.050781 276.851562 140.851562 C 277.484375 140.648438 277.933594 140.285156 278.199219 139.750000 C 278.500000 139.214844 278.566406 138.632812 278.398438 138.000000 C 278.199219 137.398438 277.816406 136.949219 277.250000 136.648438 C 276.714844 136.382812 276.148438 136.332031 275.550781 136.500000 M 298.398438 109.500000 C 298.000000 110.000000 297.816406 110.566406 297.851562 111.199219 C 297.917969 111.800781 298.183594 112.316406 298.648438 112.750000 C 299.183594 113.148438 299.750000 113.316406 300.351562 113.250000 C 300.949219 113.214844 301.464844 112.949219 301.898438 112.449219 C 302.300781 111.949219 302.484375 111.398438 302.449219 110.800781 C 302.382812 110.199219 302.101562 109.683594 301.601562 109.250000 C 301.101562 108.851562 300.550781 108.667969 299.949219 108.699219 C 299.351562 108.765625 298.832031 109.035156 298.398438 109.500000 M 258.050781 23.601562 C 258.617188 23.933594 259.199219 24.035156 259.800781 23.898438 C 260.398438 23.765625 260.867188 23.417969 261.199219 22.851562 C 261.535156 22.316406 261.632812 21.750000 261.500000 21.148438 C 261.367188 20.550781 261.035156 20.066406 260.500000 19.699219 C 259.933594 19.367188 259.351562 19.285156 258.750000 19.449219 C 258.148438 19.582031 257.683594 19.917969 257.351562 20.449219 C 257.015625 21.015625 256.917969 21.601562 257.050781 22.199219 C 257.183594 22.765625 257.515625 23.234375 258.050781 23.601562 M 277.601562 31.050781 C 278.101562 30.617188 278.367188 30.082031 278.398438 29.449219 C 278.433594 28.851562 278.234375 28.300781 277.800781 27.800781 C 277.367188 27.332031 276.851562 27.082031 276.250000 27.050781 C 275.617188 27.015625 275.066406 27.199219 274.601562 27.601562 C 274.132812 28.066406 273.867188 28.601562 273.800781 29.199219 C 273.765625 29.800781 273.964844 30.351562 274.398438 30.851562 C 274.832031 31.316406 275.351562 31.566406 275.949219 31.601562 C 276.582031 31.632812 277.132812 31.449219 277.601562 31.050781 M 300.449219 59.250000 C 301.082031 59.148438 301.582031 58.851562 301.949219 58.351562 C 302.316406 57.851562 302.449219 57.285156 302.351562 56.648438 C 302.250000 56.015625 301.949219 55.515625 301.449219 55.148438 C 300.949219 54.785156 300.382812 54.648438 299.750000 54.750000 C 299.117188 54.851562 298.617188 55.148438 298.250000 55.648438 C 297.882812 56.148438 297.750000 56.714844 297.851562 57.351562 C 297.949219 57.984375 298.250000 58.484375 298.750000 58.851562 C 299.250000 59.214844 299.816406 59.351562 300.449219 59.250000 M 291.050781 43.500000 C 291.648438 43.199219 292.050781 42.765625 292.250000 42.199219 C 292.449219 41.632812 292.417969 41.050781 292.148438 40.449219 C 291.851562 39.882812 291.417969 39.500000 290.851562 39.300781 C 290.285156 39.066406 289.699219 39.082031 289.101562 39.351562 C 288.535156 39.648438 288.148438 40.082031 287.949219 40.648438 C 287.750000 41.214844 287.765625 41.800781 288.000000 42.398438 C 288.300781 43.000000 288.734375 43.398438 289.300781 43.601562 C 289.898438 43.800781 290.484375 43.765625 291.050781 43.500000 M 206.449219 31.601562 C 207.050781 31.398438 207.500000 31.035156 207.800781 30.500000 C 208.066406 29.933594 208.117188 29.351562 207.949219 28.750000 C 207.750000 28.117188 207.382812 27.667969 206.851562 27.398438 C 206.285156 27.101562 205.699219 27.035156 205.101562 27.199219 C 204.464844 27.433594 204.015625 27.816406 203.750000 28.351562 C 203.449219 28.882812 203.382812 29.464844 203.550781 30.101562 C 203.785156 30.699219 204.167969 31.148438 204.699219 31.449219 C 205.234375 31.714844 205.816406 31.765625 206.449219 31.601562 M 240.351562 21.250000 C 240.984375 21.417969 241.566406 21.351562 242.101562 21.050781 C 242.632812 20.750000 242.984375 20.285156 243.148438 19.648438 C 243.316406 19.015625 243.250000 18.433594 242.949219 17.898438 C 242.648438 17.367188 242.199219 17.015625 241.601562 16.851562 C 240.964844 16.683594 240.382812 16.750000 239.851562 17.050781 C 239.316406 17.351562 238.949219 17.800781 238.750000 18.398438 C 238.582031 19.035156 238.648438 19.617188 238.949219 20.148438 C 239.250000 20.683594 239.714844 21.050781 240.351562 21.250000 M 220.300781 21.750000 C 220.300781 21.082031 220.515625 20.535156 220.949219 20.101562 C 221.351562 19.667969 221.882812 19.433594 222.550781 19.398438 C 223.183594 19.398438 223.714844 19.617188 224.148438 20.050781 C 224.582031 20.484375 224.816406 21.015625 224.851562 21.648438 C 224.851562 22.316406 224.632812 22.867188 224.199219 23.300781 C 223.800781 23.734375 223.265625 23.964844 222.601562 24.000000 C 221.964844 24.000000 221.433594 23.785156 221.000000 23.351562 C 220.535156 22.917969 220.300781 22.382812 220.300781 21.750000 "/>
  </g>
  <g id="surface4">
    <text style="fill:rgb(38,56,100)" font-family="Futura Md BT" font-size="50" transform="matrix(1,0,0,1,156.9,212.05)" xml:space="preserve"><![CDATA[NE Soft]]></text>
    <text style="fill:rgb(38,56,100)" font-family="Helvetica" font-size="35" transform="matrix(1,0,0,1,186.25,257.4)" xml:space="preserve"><![CDATA[Factory]]></text>
  </g>
</svg>